<svg width="30" height="30" viewBox="0 0 30 30" fill="none" xmlns="http://www.w3.org/2000/svg">
<path d="M22.95 5.85V5.8C22.9 5.75 22.9 5.7 22.85 5.65L17.35 0.15C17.3 0.1 17.25 0.1 17.2 0.05H17.15C17.1 0.05 17.05 0 17 0H0.5C0.2 0 0 0.2 0 0.5V29.5C0 29.8 0.2 30 0.5 30H22.5C22.8 30 23 29.8 23 29.5V6C23 5.95 23 5.9 22.95 5.85ZM21.3 5.5H17.5V1.7L21.3 5.5ZM1 29V1H16.5V6C16.5 6.3 16.7 6.5 17 6.5H22V29H1Z" fill="black"/>
<path d="M29.5 19V5.50005C29.5 5.35005 29.45 5.25005 29.4 5.15005L27.95 1.35005C27.9 1.20005 27.7 1.05005 27.5 1.05005C27.3 1.05005 27.1 1.15005 27.05 1.35005L25.6 5.15005C25.55 5.25005 25.5 5.35005 25.5 5.50005V19C25.2 19 25 19.2001 25 19.5V29.5C25 29.8 25.2 30 25.5 30H29.5C29.8 30 30 29.8 30 29.5V19.5C30 19.2001 29.8 19 29.5 19ZM27.45 2.90005L28.25 5.00005H26.7L27.45 2.90005ZM26.5 6.00005H28.5V19H28V11H27V19H26.5V6.00005ZM26 20H27V29H26V20ZM29 29H28V20H29V29Z" fill="black"/>
<path d="M4 6.5H5V5H6.5V4H5V2.5H4V4H2.5V5H4V6.5Z" fill="black"/>
<path d="M11 3H8V4H11V3Z" fill="black"/>
<path d="M13 5H8V6H13V5Z" fill="black"/>
<path d="M20.5 24.5H13.5V25.5H20.5V24.5Z" fill="black"/>
<path d="M14.5 26.5H13.5V27.5H14.5V26.5Z" fill="black"/>
<path d="M16.5 26.5H15.5V27.5H16.5V26.5Z" fill="black"/>
<path d="M18.5 26.5H17.5V27.5H18.5V26.5Z" fill="black"/>
<path d="M20.5 26.5H19.5V27.5H20.5V26.5Z" fill="black"/>
<path d="M14.5 9H2.5V10H14.5V9Z" fill="black"/>
<path d="M20.5 12H2.5V13H20.5V12Z" fill="black"/>
<path d="M20.5 15H2.5V16H20.5V15Z" fill="black"/>
<path d="M20.5 18H2.5V19H20.5V18Z" fill="black"/>
<path d="M20.5 21H2.5V22H20.5V21Z" fill="black"/>
</svg>
