<svg width="65" height="69" viewBox="0 0 65 69" fill="none" xmlns="http://www.w3.org/2000/svg">
<path d="M52.352 10.8135C55.4081 10.8135 58.5919 11.0082 61.8384 11.3928C62.9109 19.9338 62.5398 27.8089 60.7321 34.8233C58.7558 42.4896 55.0947 48.9646 49.8502 54.0676C45.6902 58.1154 40.612 61.2133 34.7553 63.27C29.0142 65.2892 22.526 66.3117 15.4762 66.3117C12.4201 66.3117 9.2363 66.1171 5.98979 65.7325C4.91726 57.1914 5.28843 49.3163 7.09606 42.302C9.07241 34.6356 12.7335 28.1607 17.978 23.0576C22.138 19.0098 27.2162 15.9119 33.073 13.8552C38.8164 11.8384 45.3022 10.8135 52.352 10.8135ZM52.352 8.31827C37.8306 8.31827 25.2037 12.4997 16.1656 21.294C4.76301 32.389 0.904318 49.0513 3.70976 67.9557C7.74199 68.5209 11.6754 68.8093 15.4787 68.8093C30 68.8093 42.6269 64.6279 51.6651 55.8335C63.0676 44.7386 66.9263 28.0762 64.1233 9.17425C60.0886 8.60672 56.1552 8.31827 52.352 8.31827Z" fill="url(#paint0_linear_1201_39)"/>
<path d="M3.00873 51.7084C2.66649 49.0678 2.51706 46.4834 2.56767 43.967C2.72192 36.1319 4.78503 29.1011 8.70157 23.0693C12.6181 17.0376 18.2579 12.2019 25.4619 8.70289C32.061 5.49705 39.8435 3.46146 48.6165 2.64534C49.3347 4.56603 49.9566 6.4656 50.494 8.34642C51.1086 8.33001 51.728 8.32063 52.3499 8.32063C52.615 8.32063 52.8801 8.32532 53.1452 8.32766C52.3836 5.57913 51.4485 2.80012 50.3301 0C30.8318 1.40241 15.0596 8.60674 6.53482 21.7373C-1.11749 33.5217 -1.81885 48.39 3.23288 64.1401C2.79664 59.8508 2.71951 55.6928 3.00873 51.7084Z" fill="url(#paint1_linear_1201_39)"/>
<path d="M48.7703 22.1078L47.5315 26.254C47.2109 27.3305 46.095 28.1958 45.3888 28.1958H28.6911L29.93 24.0496C30.2505 22.9732 31.3664 22.1078 32.0726 22.1078H48.7703M52.1855 19.6125H32.075C30.1493 19.6125 28.0862 21.287 27.4692 23.3531L25.2783 30.6911H45.3888C47.3146 30.6911 49.3777 29.0166 49.9947 26.9506L52.1855 19.6125Z" fill="url(#paint2_linear_1201_39)"/>
<path d="M43.5381 35.7496L42.3716 39.5324C42.0655 40.522 40.9833 41.3217 40.2892 41.3217H23.9241L25.0906 37.539C25.3967 36.5493 26.4789 35.7496 27.173 35.7496H43.5381ZM46.9847 33.2544H27.173C25.2738 33.2544 23.2444 34.8514 22.6371 36.8213L20.4775 43.817H40.2892C42.1884 43.817 44.2178 42.2199 44.8251 40.25L46.9847 33.2544Z" fill="url(#paint3_linear_1201_39)"/>
<path d="M27.7105 48.9505L26.544 52.7333C26.2379 53.7229 25.1557 54.5226 24.4616 54.5226H19.176L20.3426 50.7399C20.6487 49.7502 21.7308 48.9505 22.425 48.9505H27.7105ZM31.157 46.4553H22.425C20.5257 46.4553 18.4964 48.0523 17.889 50.0223L15.7295 57.0179H24.4616C26.3608 57.0179 28.3902 55.4208 28.9975 53.4509L31.157 46.4553Z" fill="url(#paint4_linear_1201_39)"/>
<defs>
<linearGradient id="paint0_linear_1201_39" x1="2.83193" y1="38.5634" x2="64.9976" y2="38.5634" gradientUnits="userSpaceOnUse">
<stop stop-color="#C9097D"/>
<stop offset="1" stop-color="#7D529A"/>
</linearGradient>
<linearGradient id="paint1_linear_1201_39" x1="-0.246018" y1="47.7743" x2="44.8102" y2="-1.81972" gradientUnits="userSpaceOnUse">
<stop stop-color="#C9097D"/>
<stop offset="1" stop-color="#E4AFCB"/>
</linearGradient>
<linearGradient id="paint2_linear_1201_39" x1="25.2774" y1="25.1514" x2="52.1858" y2="25.1514" gradientUnits="userSpaceOnUse">
<stop stop-color="#B12087"/>
<stop offset="1" stop-color="#933D92"/>
</linearGradient>
<linearGradient id="paint3_linear_1201_39" x1="20.4784" y1="38.5344" x2="46.9853" y2="38.5344" gradientUnits="userSpaceOnUse">
<stop stop-color="#B12087"/>
<stop offset="1" stop-color="#933D92"/>
</linearGradient>
<linearGradient id="paint4_linear_1201_39" x1="15.7299" y1="51.7356" x2="31.1569" y2="51.7356" gradientUnits="userSpaceOnUse">
<stop stop-color="#B12087"/>
<stop offset="1" stop-color="#933D92"/>
</linearGradient>
</defs>
</svg>
